<svg xmlns="http://www.w3.org/2000/svg" fill="none" viewBox="0 0 201 142" height="142" width="201">
<path fill="#47391B" d="M176.898 52.0661H178.679C179.035 52.0661 179.628 52.1254 179.628 52.9564C179.628 53.728 179.094 53.906 178.56 53.906H176.898V52.0661ZM176.898 54.4996H178.619C179.509 54.4996 179.569 55.0338 179.569 55.4492C179.569 55.6273 179.569 56.4582 179.687 56.8144H180.577V56.6957C180.577 56.6957 180.34 56.4582 180.34 56.1615V55.2118C180.281 54.4996 179.984 54.3215 179.628 54.2028C179.984 54.0247 180.399 53.728 180.399 52.897C180.399 51.7693 179.509 51.4725 178.619 51.4725H176.127V56.8144H176.839V54.4996H176.898Z"></path>
<path fill="#47391B" d="M173.576 54.2031C173.576 51.7103 175.653 49.6329 178.146 49.6329C180.638 49.6329 182.715 51.6509 182.715 54.2031C182.715 56.7553 180.697 58.7733 178.146 58.7733C175.594 58.7733 173.576 56.7553 173.576 54.2031ZM178.146 59.4856C181.053 59.4856 183.427 57.1114 183.427 54.2031C183.427 51.2948 181.053 48.8613 178.146 48.8613C175.238 48.8613 172.864 51.2355 172.864 54.2031C172.864 57.1708 175.238 59.4856 178.146 59.4856Z"></path>
<path fill="#47391B" d="M135.898 60.4939C141.06 60.85 143.79 63.5803 142.01 67.6163C141.476 68.7441 140.764 69.9905 139.577 70.5247C138.034 71.1775 136.491 70.1685 136.551 68.566C136.551 67.557 137.381 66.6667 137.085 65.6577C136.847 64.8267 135.661 64.6487 134.889 64.8267C129.133 65.9544 125.869 72.7207 126.997 78.6561C128.243 85.2443 138.212 77.469 138.034 77.5284C146.816 81.2676 130.261 90.9423 123.733 83.167C119.045 77.6471 124.327 65.9544 129.608 62.5119C131.625 61.1468 133.524 60.4939 135.957 60.4346L135.898 60.4939Z"></path>
<path fill="#47391B" d="M127.292 96.9375C136.905 96.7001 157.437 96.1065 172.628 101.567C177.79 103.407 183.606 105.603 187.344 109.342C191.735 113.735 190.311 115.337 190.311 115.337C189.243 116.999 187.878 116.346 184.674 114.209C183.665 113.497 182.597 112.785 181.588 112.073C179.986 111.123 178.384 110.173 176.722 109.224C172.331 107.028 167.584 105.84 162.599 104.772C143.076 100.558 122.248 101.508 102.547 104.238C78.9893 107.502 52.2863 115.278 29.0844 122.519C22.2603 124.834 15.4362 127.148 8.55279 129.463C6.47589 130.175 4.45834 130.947 2.44078 131.659C2.0254 131.184 1.19464 129.819 0.719919 128.751C0.660579 128.573 0.423219 128.217 0.838599 127.979C5.46711 126.139 9.97695 124.24 14.6055 122.4C25.7614 118.127 36.9766 114.565 48.5479 111.242C53.4138 109.936 58.2797 108.63 63.0862 107.324C67.0026 106.434 67.4774 106.078 74.8949 104.594C82.253 103.11 98.2155 98.0652 127.173 96.9375H127.292Z"></path>
<path fill="#47391B" d="M102.371 19.3031C100.768 18.5909 99.0476 18.2348 96.7927 18.7096C94.2411 19.3625 91.7488 20.6683 89.4939 22.2115C85.5774 24.823 82.1357 28.7403 79.1094 32.3609C74.4808 37.9401 70.2084 43.5194 66.9447 49.7515C61.248 60.6132 56.9756 71.8903 50.4482 82.2772C47.4812 87.0255 43.9208 91.5957 39.3516 95.4537C37.8681 96.7001 35.8505 97.2343 34.6044 98.7181C34.189 99.1929 33.2396 100.855 34.0703 101.508C34.9604 102.161 36.5626 101.686 37.4527 101.389C44.5735 98.9555 50.1515 91.2989 53.9492 85.0668C57.2723 79.6063 60.5953 74.2645 63.2656 68.4478C65.4018 63.6402 67.5381 58.8919 69.615 54.0843C74.4808 44.1129 82.7884 31.9454 92.6389 25.5352C94.1817 24.5262 96.6146 22.6269 98.7509 23.0424C103.261 23.814 99.0476 33.7854 98.1575 35.8034C94.4784 43.5787 88.7224 50.8198 81.5423 56.221C79.8808 57.5861 78.1599 58.8919 76.4984 60.257C74.3028 61.8596 72.4039 63.5808 71.0391 65.0647C70.5051 65.6582 71.1578 66.5485 71.4545 66.964C74.0061 70.5845 75.4896 66.4298 77.9819 65.1834C78.516 64.8866 78.9907 64.8273 79.5247 65.0647C79.9995 65.1834 80.4148 65.5395 80.7115 66.0143C83.9752 70.4065 81.0082 80.6153 77.8039 84.2358C76.1424 86.0758 75.0742 86.9661 72.4633 88.0345C72.4039 88.0345 71.9292 88.2719 72.0479 88.2125C71.5138 88.4499 71.5732 88.1532 71.5732 88.0345C71.5732 83.2862 72.76 77.7663 68.5468 75.1548C67.8941 74.7393 67.36 74.4425 66.2919 74.2645C64.6897 73.9677 62.5535 75.0361 61.5447 76.3418C58.8744 79.5469 58.6964 89.2215 61.6041 92.2486C68.5468 99.4303 77.9226 93.6137 82.1357 86.5506C84.628 82.3365 86.4082 77.1134 86.6455 71.831C86.8829 67.3201 84.806 64.946 83.3225 61.3848C83.0851 60.6132 86.2301 57.9422 86.6455 57.5861C90.562 53.9656 94.4191 50.2263 97.7421 46.0716C101.54 41.2639 111.865 23.2798 102.43 19.1251L102.371 19.3031ZM65.8765 89.5183C65.2238 89.3402 64.6897 88.6874 64.393 88.1532C62.6128 85.2449 63.2062 82.1585 64.4524 79.5469C65.1051 78.3005 66.3513 78.894 66.7666 79.725C67.5974 80.912 69.1402 90.3493 65.8765 89.5183Z"></path>
<path fill="#47391B" d="M117.797 68.9223C119.28 63.2244 108.599 62.8683 106.285 63.5805C104.208 63.996 102.487 65.4798 101.004 67.0824C98.2146 70.0501 91.2125 83.0485 95.1883 86.7877C95.9597 87.5 97.0278 87.678 98.1553 87.7374C103.259 87.9154 104.801 85.3039 108.836 83.642C108.955 83.642 110.32 83.1078 109.549 83.2859C110.854 84.4136 112.516 89.8148 115.661 86.4316C117.441 84.4729 115.245 81.5053 115.423 79.3685C116.254 75.8667 117.025 72.3648 117.797 68.863V68.9223ZM105.751 80.615C104.208 81.9207 102.606 82.9298 100.826 83.642C100.173 83.8794 98.5113 84.5917 98.5707 83.9388C98.5707 79.5466 101.063 73.0177 104.03 70.0501C104.92 69.1004 105.751 68.4475 106.76 67.854C109.193 66.6075 111.21 68.032 111.981 69.2191C113.762 71.9494 108.006 78.775 105.869 80.615H105.751Z"></path>
<path fill="#47391B" d="M194.939 0.30972C193.337 0.369073 191.082 1.08131 189.599 1.91226C188.471 2.5058 186.454 4.04899 184.14 6.12636C177.612 11.8836 174.052 17.1661 170.195 24.4666C168.177 28.3246 166.397 32.1825 164.795 36.2779C163.786 38.7114 163.014 42.2133 161.056 44.1126C160.166 45.0029 159.395 45.1216 158.089 45.4777C155.716 45.8932 153.639 46.3087 150.612 45.0622C148.358 44.1126 145.213 39.483 142.602 41.501C142.127 41.8572 141.593 42.4507 141.533 43.0442C140.94 45.9525 148.654 49.1576 150.909 49.5138C153.995 50.1073 156.546 50.226 158.564 49.8699C157.733 52.0066 156.962 53.9059 156.131 55.9833C153.579 61.5032 150.968 67.023 148.358 72.4836C146.993 75.2138 145.094 77.8254 143.848 80.6743C143.373 81.8021 143.136 83.2859 144.204 84.2355C145.094 84.9478 146.34 84.8291 147.171 84.0575C148.773 82.5736 149.485 80.7931 150.672 79.0718C153.283 75.3325 161.056 65.7173 165.269 64.2334C165.269 64.2334 165.447 64.1147 165.447 64.3521C165.447 67.023 165.151 69.1004 164.142 71.3558C163.193 73.4926 153.935 85.2446 161.294 85.5413C162.006 85.5413 162.54 85.1258 162.955 84.5917C163.608 82.8111 164.261 81.0898 164.854 79.3092C167.05 74.5609 171.203 70.4062 170.61 64.4115C170.491 63.1651 169.898 61.9186 169.067 61.0283C165.566 57.2891 161.768 60.6722 158.861 62.987C157.318 64.2334 157.437 63.5212 157.496 63.1651C157.496 61.9186 164.261 47.9706 165.269 47.1396C168.83 45.0622 172.094 43.4003 175.713 41.323C183.902 36.2186 192.862 29.1555 197.669 20.5493C200.992 14.6733 204.137 0.725194 194.939 0.250366V0.30972ZM196.898 10.934C195.117 19.9557 189.065 27.9091 181.41 33.5477C179.392 34.7941 177.434 36.0999 175.417 37.3463C173.043 38.8895 170.135 40.492 167.584 41.6197C167.346 41.7385 167.109 41.8572 166.872 41.9759C166.397 42.332 166.872 41.5604 166.872 41.5604C167.346 40.4327 170.373 34.0819 171.203 32.42C173.34 28.0872 175.179 23.7543 177.731 19.659C179.214 17.2848 181.469 14.2578 183.131 12.5959C184.496 11.2901 186.038 9.56886 187.463 8.38179C189.836 6.42313 191.32 4.87994 194.227 4.34576C197.313 3.75222 197.432 8.20373 196.898 10.934Z"></path>
<path fill="#47391B" d="M73.1136 117.77C75.6059 117.77 77.5641 119.907 77.5641 122.222C77.5641 124.537 75.7839 126.792 73.1136 126.792C70.6213 126.792 68.6631 124.655 68.6631 122.34C68.6631 120.026 70.4433 117.77 73.1136 117.77ZM73.2323 126.436C75.0718 126.436 76.1993 124.893 76.1993 122.637C76.1993 120.738 75.1311 118.186 72.9949 118.186C71.1554 118.186 70.0279 119.729 70.0279 121.984C70.0279 123.884 71.096 126.436 73.2323 126.436Z"></path>
<path fill="#47391B" d="M81.66 122.519V125.427C81.66 126.317 82.1347 126.317 82.7874 126.317V126.614C82.194 126.614 81.66 126.614 81.1259 126.614C80.5325 126.614 79.9391 126.614 79.3457 126.614V126.317C79.9984 126.317 80.4732 126.199 80.4732 125.486V119.195C80.4732 118.304 79.9984 118.304 79.3457 118.304V118.008C80.0578 118.008 80.6512 118.008 81.2446 118.008C81.66 118.008 82.1347 118.008 82.9061 118.008C85.2797 118.008 85.7544 119.314 85.7544 120.204C85.7544 121.272 84.983 122.044 83.9742 122.341C85.1017 124.002 85.6951 125.011 86.2291 125.605C86.6445 126.08 87.0006 126.377 87.6533 126.377V126.673C87.3566 126.673 87.0006 126.673 86.7039 126.673C86.3478 126.673 85.9918 126.673 85.6357 126.673C84.5083 125.427 83.6775 124.002 82.7874 122.578H81.66V122.519ZM82.4314 118.364C82.1347 118.364 81.8973 118.364 81.66 118.423V122.044C81.66 122.044 82.1347 122.103 82.3127 122.103C83.8555 122.103 84.4489 121.094 84.4489 120.204C84.4489 119.135 83.8555 118.304 82.4314 118.304V118.364Z"></path>
<path fill="#47391B" d="M89.9077 119.195C89.9077 118.304 89.433 118.304 88.7803 118.304V118.008C89.3737 118.008 89.9077 118.008 90.5011 118.008C91.0945 118.008 91.6286 118.008 92.2813 118.008V118.304C91.6286 118.304 91.1539 118.304 91.1539 119.195V125.427C91.1539 126.317 91.6286 126.317 92.2813 126.317V126.614C91.6879 126.614 91.1539 126.614 90.6198 126.614C90.0264 126.614 89.433 126.614 88.8396 126.614V126.317C89.4924 126.317 89.9671 126.317 89.9671 125.427V119.195H89.9077Z"></path>
<path fill="#47391B" d="M101.954 120.204H101.658C101.361 118.779 100.115 118.186 98.7501 118.186C96.5545 118.186 95.3084 120.085 95.3084 122.163C95.3084 124.299 96.6139 126.436 98.8688 126.436C99.8182 126.436 100.352 126.08 100.53 125.961V124.121C100.53 123.231 100.056 123.231 99.4029 123.231V122.934C99.9963 122.934 100.53 122.934 101.124 122.934C101.717 122.934 102.251 122.934 102.667 122.934V123.231C102.251 123.231 101.776 123.231 101.776 124.121V125.724L101.954 125.902V126.139C100.946 126.495 99.8182 126.852 98.7501 126.852C95.2491 126.852 94.0029 124.121 94.0029 122.341C94.0029 119.729 96.0205 117.83 98.6314 117.83C99.7589 117.83 100.768 118.127 101.836 118.483L102.073 120.204H101.954Z"></path>
<path fill="#47391B" d="M104.921 119.195C104.921 118.304 104.447 118.304 103.794 118.304V118.008C104.387 118.008 104.921 118.008 105.515 118.008C106.108 118.008 106.642 118.008 107.295 118.008V118.304C106.642 118.304 106.168 118.304 106.168 119.195V125.427C106.168 126.317 106.642 126.317 107.295 126.317V126.614C106.702 126.614 106.168 126.614 105.633 126.614C105.04 126.614 104.447 126.614 103.853 126.614V126.317C104.506 126.317 104.981 126.317 104.981 125.427V119.195H104.921Z"></path>
<path fill="#47391B" d="M117.204 126.733H116.907L110.439 119.61V124.24C110.439 125.961 110.558 126.317 111.923 126.317V126.614C111.389 126.614 110.795 126.614 110.261 126.614C109.727 126.614 109.134 126.614 108.6 126.614V126.317C109.371 126.317 109.905 126.317 109.905 124.715V119.729C109.905 118.661 109.43 118.304 108.362 118.304V118.008C108.718 118.008 109.134 118.008 109.49 118.008C109.846 118.008 110.143 118.008 110.499 118.008C111.033 118.779 112.16 119.907 113.584 121.45C114.652 122.637 115.78 123.824 116.67 124.774V119.848C116.67 118.72 116.433 118.364 115.186 118.364V118.067C115.78 118.067 116.314 118.067 116.907 118.067C117.382 118.067 117.857 118.067 118.331 118.067V118.364C117.56 118.364 117.145 118.423 117.145 119.67V126.851L117.204 126.733Z"></path>
<path fill="#47391B" d="M126.282 124.18C126.46 124.655 126.816 125.724 126.994 126.02C127.172 126.258 127.528 126.377 127.943 126.377V126.673C127.469 126.673 126.994 126.673 126.519 126.673C125.926 126.673 125.332 126.673 124.68 126.673V126.377H124.917C125.214 126.377 125.629 126.317 125.629 125.961C125.629 125.842 125.51 125.486 125.451 125.249L124.798 123.468H121.891L121.594 124.358C121.416 124.893 121.238 125.427 121.238 125.842C121.238 126.436 121.653 126.377 122.069 126.436H122.365V126.733C121.891 126.733 121.357 126.733 120.882 126.733C120.407 126.733 119.873 126.733 119.398 126.733V126.436C120.17 126.377 120.289 126.258 120.585 125.546C120.763 125.071 120.941 124.596 121.119 124.18L122.721 119.729C122.721 119.729 122.959 118.957 122.959 118.601C122.959 118.483 122.959 118.364 122.959 118.304C123.196 118.186 123.493 118.067 123.671 117.77H123.908L126.282 124.299V124.18ZM122.009 122.875H124.561L123.256 119.195L122.069 122.875H122.009Z"></path>
<path fill="#47391B" d="M135.658 126.614C134.59 126.614 133.581 126.614 132.513 126.614C131.445 126.614 130.317 126.614 129.249 126.614V126.317C129.842 126.317 130.376 126.199 130.376 125.486V119.195C130.376 118.304 129.902 118.304 129.249 118.304V118.008C129.842 118.008 130.436 118.008 130.97 118.008C131.504 118.008 132.097 118.008 132.75 118.008V118.304C132.097 118.304 131.623 118.304 131.623 119.195V124.952C131.623 125.902 131.801 126.258 133.581 126.258C135.005 126.258 135.539 125.902 135.895 124.715H136.192L135.717 126.673L135.658 126.614Z"></path>
<path fill="#47391B" d="M39.8841 140.325C39.8841 141.215 40.3588 141.215 41.0116 141.215V141.512C40.4182 141.512 39.8248 141.512 39.2314 141.512C38.638 141.512 38.1039 141.512 37.4512 141.512V141.215C38.5193 141.215 38.638 141.037 38.638 139.791V134.271C38.638 133.262 38.46 133.203 37.4512 133.143V132.846C38.3413 132.846 39.2314 132.846 40.1215 132.846C41.2489 132.846 42.3764 132.846 43.5038 132.846V134.568H43.2665C43.1478 133.499 42.6137 133.143 41.2489 133.143H39.7654V136.645H41.2489C42.2577 136.645 42.3764 136.467 42.4951 135.636H42.7918C42.7918 135.636 42.7918 136.526 42.7918 137.001C42.7918 137.417 42.7918 138.01 42.7918 138.307H42.5544C42.4357 137.476 42.3764 137.179 41.3083 137.179H39.7654V140.206L39.8841 140.325Z"></path>
<path fill="#47391B" d="M51.5161 141.512C50.448 141.512 49.4392 141.512 48.3711 141.512C47.303 141.512 46.1755 141.512 45.1074 141.512V141.215C45.7602 141.215 46.2349 141.097 46.2349 140.384V134.093C46.2349 133.203 45.7602 133.203 45.1074 133.203V132.906C45.7008 132.906 46.2349 132.906 46.8283 132.906C47.4217 132.906 47.9557 132.906 48.6085 132.906V133.203C47.9557 133.203 47.481 133.203 47.481 134.093V139.85C47.481 140.8 47.659 141.156 49.4392 141.156C50.8634 141.156 51.3975 140.8 51.7535 139.613H52.0502L51.5755 141.572L51.5161 141.512Z"></path>
<path fill="#47391B" d="M58.0423 132.669C60.5346 132.669 62.4928 134.805 62.4928 137.12C62.4928 139.435 60.7126 141.69 58.0423 141.69C55.55 141.69 53.5918 139.554 53.5918 137.239C53.5918 134.924 55.372 132.669 58.0423 132.669ZM58.161 141.334C60.0005 141.334 61.128 139.791 61.128 137.536C61.128 135.636 60.0599 133.084 57.9236 133.084C56.0841 133.084 54.9566 134.627 54.9566 136.883C54.9566 138.782 56.0247 141.334 58.161 141.334Z"></path>
<path fill="#47391B" d="M70.0278 137.357L68.5443 133.915C68.2476 133.262 68.1289 133.143 67.3575 133.143V132.847C67.9509 132.847 68.485 132.847 69.0784 132.847C69.4937 132.847 69.9685 132.847 70.3838 132.847V133.143C70.3838 133.143 69.6718 133.143 69.6718 133.44C69.6718 133.559 69.7311 133.796 69.7904 133.915L70.6212 135.992L71.3926 134.271C71.5706 133.974 71.63 133.737 71.63 133.499C71.63 133.084 71.3333 133.084 70.7992 133.084V132.787C71.2739 132.787 71.7487 132.787 72.2234 132.787C72.5794 132.787 72.9355 132.787 73.2915 132.787V133.084C72.6388 133.084 72.4014 133.381 72.164 133.856L70.9179 136.527L72.4014 139.969L74.4783 134.271C74.7157 133.737 74.7157 133.559 74.7157 133.44C74.7157 133.203 74.597 133.025 73.7662 133.025V132.728C74.2409 132.728 74.7157 132.728 75.131 132.728C75.4277 132.728 75.7838 132.728 76.1398 132.728V133.025C75.5464 133.025 75.4277 133.381 75.2497 133.856L72.2827 141.512H71.986L70.3245 137.773L68.6036 141.512H68.2476L65.1619 133.974C64.8652 133.262 64.7465 132.965 63.8564 132.965V132.669C64.3905 132.669 64.9839 132.669 65.5773 132.669C66.052 132.669 66.5861 132.669 67.0608 132.669V132.965C66.4674 132.965 66.2894 133.084 66.2894 133.262C66.2894 133.381 66.2894 133.499 66.4081 133.856L68.841 139.91L70.0871 137.239L70.0278 137.357Z"></path>
<path fill="#47391B" d="M79.6422 136.764H81.3037C82.3125 136.764 82.3125 135.992 82.3718 135.695H82.6092C82.6092 135.695 82.6092 136.645 82.6092 137.061C82.6092 137.476 82.6685 138.07 82.6092 138.426H82.3718C82.3718 137.239 81.9564 137.239 81.007 137.239H79.7015V139.375C79.7015 140.74 79.7015 141.097 81.007 141.097H81.7784C83.0245 141.037 83.5586 140.859 84.0333 139.553H84.33C84.152 140.206 83.974 140.859 83.796 141.512C82.5498 141.512 81.3037 141.512 80.0575 141.512C79.1674 141.512 78.218 141.512 77.2686 141.512V141.215C78.3367 141.215 78.4554 141.037 78.4554 139.791V134.271C78.4554 133.262 78.2773 133.203 77.2686 133.143V132.846C78.0993 132.846 78.9301 132.846 79.7608 132.846C80.9476 132.846 82.1344 132.846 83.3212 132.846V134.686H83.0839C82.9059 133.559 82.3125 133.203 81.1257 133.203H79.6422V136.704V136.764Z"></path>
<path fill="#47391B" d="M87.8299 137.417V140.325C87.8299 141.215 88.3046 141.215 88.9573 141.215V141.512C88.3639 141.512 87.8299 141.512 87.2958 141.512C86.7024 141.512 86.109 141.512 85.5156 141.512V141.215C86.1684 141.215 86.6431 141.097 86.6431 140.384V134.093C86.6431 133.203 86.1684 133.203 85.5156 133.203V132.906C86.2277 132.906 86.8211 132.906 87.4145 132.906C87.8299 132.906 88.3046 132.906 89.076 132.906C91.4496 132.906 91.9243 134.212 91.9243 135.102C91.9243 136.17 91.1529 136.942 90.1441 137.239C91.2716 138.901 91.865 139.91 92.3991 140.503C92.8144 140.919 93.1705 141.275 93.8232 141.275V141.572C93.5265 141.572 93.2298 141.572 92.8738 141.572C92.5177 141.572 92.1617 141.572 91.8057 141.572C90.6782 140.325 89.8474 138.901 88.9573 137.476H87.8299V137.417ZM88.6013 133.262C88.3046 133.262 88.0672 133.262 87.8299 133.321V136.942C87.8299 136.942 88.3046 137.001 88.4826 137.001C90.0255 137.001 90.6189 135.992 90.6189 135.102C90.6189 134.034 90.0255 133.203 88.6013 133.203V133.262Z"></path>
<path fill="#47391B" d="M101.479 137.417V140.325C101.479 141.215 101.954 141.215 102.607 141.215V141.512C102.013 141.512 101.479 141.512 100.945 141.512C100.352 141.512 99.7584 141.512 99.165 141.512V141.215C99.7584 141.215 100.293 141.097 100.293 140.384V134.093C100.293 133.203 99.8178 133.203 99.165 133.203V132.906C99.8771 132.906 100.471 132.906 101.064 132.906C101.479 132.906 101.954 132.906 102.725 132.906C105.099 132.906 105.574 134.212 105.574 135.102C105.574 136.17 104.802 136.942 103.794 137.239C104.921 138.901 105.514 139.91 106.048 140.503C106.464 140.919 106.82 141.275 107.473 141.275V141.572C107.176 141.572 106.879 141.572 106.523 141.572C106.167 141.572 105.811 141.572 105.455 141.572C104.328 140.325 103.497 138.901 102.607 137.476H101.479V137.417ZM102.251 133.262C101.954 133.262 101.717 133.262 101.479 133.321V136.942C101.479 136.942 101.954 137.001 102.132 137.001C103.675 137.001 104.268 135.992 104.268 135.102C104.268 134.034 103.675 133.203 102.251 133.203V133.262Z"></path>
<path fill="#47391B" d="M111.091 136.764H112.753C113.762 136.764 113.762 135.992 113.821 135.695H114.058C114.058 135.695 114.058 136.645 114.058 137.061C114.058 137.476 114.118 138.07 114.058 138.426H113.821C113.821 137.239 113.406 137.239 112.456 137.239H111.151V139.375C111.151 140.74 111.151 141.097 112.456 141.097H113.228C114.474 141.037 115.008 140.859 115.483 139.553H115.779C115.601 140.206 115.423 140.859 115.245 141.512C113.999 141.512 112.753 141.512 111.507 141.512C110.617 141.512 109.667 141.512 108.718 141.512V141.215C109.786 141.215 109.905 141.037 109.905 139.791V134.271C109.905 133.262 109.727 133.203 108.718 133.143V132.846C109.549 132.846 110.379 132.846 111.21 132.846C112.397 132.846 113.584 132.846 114.77 132.846V134.686H114.533C114.355 133.559 113.762 133.203 112.516 133.203H111.032V136.704L111.091 136.764Z"></path>
<path fill="#47391B" d="M122.723 139.85C123.85 137.536 125.037 135.221 126.105 132.906C126.461 132.906 126.758 132.906 127.114 132.906C127.47 132.906 127.826 132.906 128.182 132.906V133.203C127.766 133.203 127.47 133.203 127.292 133.381C127.114 133.499 127.054 133.737 127.054 134.152C127.054 136.111 127.173 138.188 127.232 140.088C127.232 141.037 127.351 141.275 128.597 141.275V141.572C127.885 141.572 127.232 141.572 126.52 141.572C125.927 141.572 125.334 141.572 124.681 141.572V141.275C125.096 141.275 125.452 141.275 125.63 141.156C125.868 141.037 125.927 140.8 125.927 140.325V134.39H125.808L122.901 140.503C122.782 140.8 122.545 141.393 122.426 141.75H122.189C121.12 139.375 119.934 137.061 118.747 134.687L118.628 139.197C118.628 139.197 118.628 139.791 118.628 139.969C118.628 140.563 118.628 140.919 118.865 141.097C119.044 141.275 119.4 141.334 119.874 141.334V141.631C119.34 141.631 118.865 141.631 118.331 141.631C117.797 141.631 117.204 141.631 116.67 141.631V141.334C117.56 141.334 118.094 141.097 118.153 139.435C118.153 137.714 118.272 136.052 118.272 134.33C118.272 133.915 118.213 133.618 118.035 133.499C117.857 133.321 117.56 133.321 117.204 133.321V133.025C117.619 133.025 118.094 133.025 118.509 133.025C118.747 133.025 119.044 133.025 119.281 133.025L122.604 139.969L122.723 139.85Z"></path>
<path fill="#47391B" d="M132.335 136.764H133.996C135.005 136.764 135.005 135.992 135.064 135.695H135.302C135.302 135.695 135.302 136.645 135.302 137.061C135.302 137.476 135.361 138.07 135.302 138.426H135.064C135.064 137.239 134.649 137.239 133.699 137.239H132.394V139.375C132.394 140.74 132.394 141.097 133.699 141.097H134.471C135.717 141.037 136.251 140.859 136.726 139.553H137.022C136.844 140.206 136.666 140.859 136.488 141.512C135.242 141.512 133.996 141.512 132.75 141.512C131.86 141.512 130.91 141.512 129.961 141.512V141.215C131.029 141.215 131.148 141.037 131.148 139.791V134.271C131.148 133.262 130.97 133.203 129.961 133.143V132.846C130.792 132.846 131.622 132.846 132.453 132.846C133.64 132.846 134.827 132.846 136.014 132.846V134.686H135.776C135.598 133.559 135.005 133.203 133.818 133.203H132.335V136.704V136.764Z"></path>
<path fill="#47391B" d="M139.217 134.212C139.217 133.084 138.624 133.143 138.09 133.143V132.846C138.565 132.846 139.039 132.846 139.573 132.846C140.107 132.846 140.819 132.846 141.71 132.846C144.914 132.846 146.694 134.983 146.694 137.179C146.694 138.426 145.982 141.512 141.591 141.512C140.938 141.512 140.345 141.512 139.811 141.512C139.277 141.512 138.683 141.512 138.149 141.512V141.215C138.921 141.156 139.277 141.097 139.277 140.266V134.212H139.217ZM140.463 140.088C140.463 141.037 141.176 141.156 141.769 141.156C144.439 141.156 145.329 139.138 145.329 137.298C145.329 134.983 143.846 133.321 141.472 133.321C140.938 133.321 140.701 133.321 140.523 133.321V140.088H140.463Z"></path>
<path fill="#47391B" d="M149.485 134.093C149.485 133.203 149.01 133.203 148.357 133.203V132.906C148.951 132.906 149.485 132.906 150.078 132.906C150.672 132.906 151.206 132.906 151.858 132.906V133.203C151.206 133.203 150.731 133.203 150.731 134.093V140.325C150.731 141.215 151.206 141.215 151.858 141.215V141.512C151.265 141.512 150.731 141.512 150.197 141.512C149.604 141.512 149.01 141.512 148.417 141.512V141.215C149.07 141.215 149.544 141.215 149.544 140.325V134.093H149.485Z"></path>
<path fill="#47391B" d="M155.538 136.764H157.199C158.208 136.764 158.208 135.992 158.268 135.695H158.505C158.505 135.695 158.505 136.645 158.505 137.061C158.505 137.476 158.505 138.07 158.505 138.426H158.268C158.268 137.239 157.852 137.239 156.903 137.239H155.597V139.375C155.597 140.74 155.597 141.097 156.903 141.097H157.674C158.92 141.037 159.454 140.859 159.929 139.553H160.226C160.048 140.206 159.87 140.859 159.692 141.512C158.446 141.512 157.199 141.512 155.953 141.512C155.063 141.512 154.114 141.512 153.224 141.512V141.215C154.292 141.215 154.41 141.037 154.41 139.791V134.271C154.41 133.262 154.232 133.203 153.224 133.143V132.846C154.054 132.846 154.885 132.846 155.716 132.846C156.903 132.846 158.09 132.846 159.276 132.846V134.686H159.039C158.861 133.559 158.268 133.203 157.081 133.203H155.597V136.704L155.538 136.764Z"></path>
<path fill="#47391B" d="M161.531 139.494H161.828C162.065 140.444 162.718 141.334 163.786 141.334C164.736 141.334 165.507 140.681 165.507 139.672C165.507 137.357 161.828 138.07 161.828 135.102C161.828 133.499 162.955 132.669 164.498 132.669C165.032 132.669 165.507 132.787 165.982 132.847L166.16 134.449H165.863C165.744 133.559 165.151 133.084 164.261 133.084C163.311 133.084 162.777 133.737 162.777 134.687C162.777 137.001 166.634 136.348 166.634 139.197C166.634 140.8 165.151 141.69 163.727 141.69C163.074 141.69 162.421 141.512 161.828 141.275L161.591 139.435L161.531 139.494Z"></path>
</svg>
